<?xml version="1.0" ?><svg viewBox="0 0 20.605 20.606" xmlns="http://www.w3.org/2000/svg"><defs><style>.cls-1{fill:#1a171b;}</style></defs><g data-name="Layer 2" id="Layer_2"><g data-name="Layer 1" id="Layer_1-2"><path class="cls-1" d="M19.044,6.348V9.262a.312.312,0,1,1-.624,0V6.348a.312.312,0,1,1,.624,0ZM1.652,4.256c-.291.281.159.732.441.441S1.936,3.974,1.652,4.256Zm.22,3.238a.313.313,0,0,0,0,.625A.313.313,0,0,0,1.872,7.494Zm-.22,3.422c-.291.28.161.732.441.441S1.936,10.634,1.652,10.916ZM20.605,1.873V13.737a1.875,1.875,0,0,1-1.873,1.873H17.483v4.684a.312.312,0,0,1-.312.312H12.219a.313.313,0,0,1-.313-.312V18.882c-1.02-.411-2.156-1.824-3.3-2.152a6.079,6.079,0,0,0-1.894.153.312.312,0,0,1-.328-.143,2.082,2.082,0,0,1-.152-1.13H1.873A1.875,1.875,0,0,1,0,13.737V1.873A1.875,1.875,0,0,1,1.873,0H18.732A1.875,1.875,0,0,1,20.605,1.873ZM3.122.624H1.873A1.251,1.251,0,0,0,.624,1.873V13.737a1.251,1.251,0,0,0,1.249,1.249H3.122ZM16.859,18.941H12.531v1.041h4.328Zm0-6.63a.723.723,0,0,0-.717-.681c-.221-.027-.411.2-.626.1a.313.313,0,0,1-.176-.218.719.719,0,0,0-.7-.567c-.293-.043-.462.275-.73.278a.311.311,0,0,1-.224-.125.735.735,0,0,0-1.147,0,.312.312,0,0,1-.562-.187V7.326c-.008-.6-1.221-.59-1.229,0v7.232a.313.313,0,0,1-.4.3c-.882-.336-3.97-.346-3.481,1.36a5.349,5.349,0,0,1,1.93-.082c1.2.3,2.413,1.837,3.419,2.18h4.64ZM19.981,1.873A1.251,1.251,0,0,0,18.732.624H17.483V10.3a.312.312,0,0,1-.624,0V.624H3.747V14.986H6.483c.538-.905,2.67-1.1,3.64-.824V7.326c.026-1.418,2.451-1.422,2.477,0v2.956a1.379,1.379,0,0,1,1.372.216,1.351,1.351,0,0,1,1.857.545,1.343,1.343,0,0,1,1.654,1.268v2.675h1.249a1.25,1.25,0,0,0,1.249-1.249ZM12.8,3.33h-5A1.98,1.98,0,0,0,5.828,5.308v5A1.979,1.979,0,0,0,7.805,12.28H9.187a.312.312,0,0,0,0-.624H7.805A1.355,1.355,0,0,1,6.452,10.3v-5A1.355,1.355,0,0,1,7.805,3.955h5a1.355,1.355,0,0,1,1.353,1.353V9.4a.313.313,0,0,0,.625,0V5.308A1.98,1.98,0,0,0,12.8,3.33Z" id="choose"/></g></g></svg>